inDegrees=yes
name=ik_Shooting_orientations_side
DataType=double
version=3
OpenSimVersion=4.3-2021-08-27-4bc7ad9
endheader
time	pelvis_tilt	pelvis_list	pelvis_rotation	pelvis_tx	pelvis_ty	pelvis_tz	hip_flexion_r	hip_adduction_r	hip_rotation_r	knee_angle_r	knee_angle_r_beta	ankle_angle_r	subtalar_angle_r	mtp_angle_r	hip_flexion_l	hip_adduction_l	hip_rotation_l	knee_angle_l	knee_angle_l_beta	ankle_angle_l	subtalar_angle_l	mtp_angle_l	lumbar_extension	lumbar_bending	lumbar_rotation	arm_flex_r	arm_add_r	arm_rot_r	elbow_flex_r	pro_sup_r	wrist_flex_r	wrist_dev_r	arm_flex_l	arm_add_l	arm_rot_l	elbow_flex_l	pro_sup_l	wrist_flex_l	wrist_dev_l
10	-2.516114828656455	-1.64663538099132	147.2776956582494	0	0.9399999999999999	0	43.60344500967414	-10.03817637487748	0	59.68947511523736	1.041777869548114	-5.004765420701691	0	0	43.60344500967414	-10.03817637487748	0	59.68947511523736	1.041777869548114	-5.004765420701691	0	0	-0.1272195384705648	-1.560027987290657	-2.071583859306034	0	-11.84348423385909	0	75.89241083376639	45.02823140138688	0	0	25.45571014661676	4.73492473896802	18.48571147745652	75.89241083376639	45.02823140138688	0	0
10.01	-2.524340910729741	-1.645134483406572	147.2705191008851	0	0.9399999999999999	0	43.60359986431983	-10.03816170573933	0	59.68950230809556	1.041778344153022	-5.004763035917501	0	0	43.60359986431983	-10.03816170573933	0	59.68950230809556	1.041778344153022	-5.004763035917501	0	0	-0.1295356199163362	-1.560467819332243	-2.064583997653854	0	-11.84366428575556	0	75.89231192009909	45.02822280820845	0	0	25.50186966604787	4.690918568648789	18.62995442732664	75.89231192009909	45.02822280820845	0	0
10.02	-2.54181570204552	-1.645489576819936	147.2677939519162	0	0.9399999999999999	0	43.60383594189017	-10.03813927913259	0	59.68954366624423	1.041779065988889	-5.004759388123201	0	0	43.60383594189017	-10.03813927913259	0	59.68954366624423	1.041779065988889	-5.004759388123201	0	0	-0.149754436791235	-1.574846033809222	-2.055969774247069	0	-11.84393832503825	0	75.89216112529867	45.02820967706944	0	0	25.51786458350105	4.646662388812244	18.78653451983457	75.89216112529867	45.02820967706944	0	0
10.03	-2.548501835123062	-1.637733148064947	147.2378403756106	0	0.9399999999999999	0	43.60689298564657	-10.0378698851308	0	59.69007946658969	1.041788417469051	-5.004716962619027	0	0	43.60689298564657	-10.0378698851308	0	59.69007946658969	1.041788417469051	-5.004716962619027	0	0	-0.1746862015243641	-1.574540927592644	-2.054611790609761	0	-11.84752974036106	0	75.89020839968597	45.02804836785155	0	0	25.50587534466459	4.591711515523949	18.84373412067308	75.89020839968597	45.02804836785155	0	0
10.04	-2.559218291854831	-1.633466815273726	147.2351088432812	0	0.9399999999999999	0	43.60954549851864	-10.03762689648393	0	59.69054188258916	1.041796488150755	-5.004678092889169	0	0	43.60954549851864	-10.03762689648393	0	59.69054188258916	1.041796488150755	-5.004678092889169	0	0	-0.1960718417700986	-1.576740256694018	-2.051404560155635	0	-11.85061983021477	0	75.88851408965461	45.02790445696706	0	0	25.52725612310207	4.553992961748688	18.96768078062837	75.88851408965461	45.02790445696706	0	0
10.05	-2.556184870082898	-1.632652822898809	147.2474089797382	0	0.9399999999999999	0	43.61198865992257	-10.03740630353	0	59.69096823767933	1.041803929450861	-5.004643016474375	0	0	43.61198865992257	-10.03740630353	0	59.69096823767933	1.041803929450861	-5.004643016474375	0	0	-0.1880752425605674	-1.564111019977709	-2.0325495369787	0	-11.85347416451899	0	75.88695349856816	45.02777326198462	0	0	25.53147639535963	4.537538160630504	19.10744322573043	75.88695349856816	45.02777326198462	0	0
10.06	-2.569144691820679	-1.617062388363682	147.2461046991894	0	0.9399999999999999	0	43.61427468812415	-10.03721344266417	0	59.69136996814102	1.041810940970124	-5.004613214208366	0	0	43.61427468812415	-10.03721344266417	0	59.69136996814102	1.041810940970124	-5.004613214208366	0	0	-0.1976959387837216	-1.557686170693979	-2.009064706359796	0	-11.85618177292138	0	75.88549325369591	45.02765627755652	0	0	25.5151578212739	4.497702358462409	19.21535999160083	75.88549325369591	45.02765627755652	0	0
10.07	-2.571922220856976	-1.612901865021064	147.2427764647982	0	0.9399999999999999	0	43.61705155441297	-10.03697447118055	0	59.69185740760278	1.041819448393635	-5.004575946569285	0	0	43.61705155441297	-10.03697447118055	0	59.69185740760278	1.041819448393635	-5.004575946569285	0	0	-0.2104469212118958	-1.555624663091183	-2.019271937252069	0	-11.85945916477139	0	75.88371948487963	45.02751220139483	0	0	25.5010256267088	4.452399740231684	19.29956258855687	75.88371948487963	45.02751220139483	0	0
10.08	-2.583346860344481	-1.613279669443298	147.2437509126326	0	0.9399999999999999	0	43.61964717780479	-10.03674147950666	0	59.69231075608745	1.041827360817352	-5.004538970681989	0	0	43.61964717780479	-10.03674147950666	0	59.69231075608745	1.041827360817352	-5.004538970681989	0	0	-0.2178479696391322	-1.555769507113612	-2.019780853223348	0	-11.86249592958296	0	75.88206150487717	45.02737342322295	0	0	25.52289535828093	4.413235057724172	19.41751918917411	75.88206150487717	45.02737342322295	0	0
10.09	-2.585881023577247	-1.590725470364524	147.2348616878583	0	0.9399999999999999	0	43.61977870061583	-10.03672938587142	0	59.69233396169988	1.041827765831694	-5.004537026215599	0	0	43.61977870061583	-10.03672938587142	0	59.69233396169988	1.041827765831694	-5.004537026215599	0	0	-0.2375985569703635	-1.542564734363362	-2.017767579964279	0	-11.86264996385478	0	75.8819774938006	45.02736628156529	0	0	25.55500879001362	4.364568378789373	19.56318086014748	75.8819774938006	45.02736628156529	0	0
10.1	-2.597764731984509	-1.577004562264517	147.2292673005011	0	0.9399999999999999	0	43.61996359404883	-10.03671232054965	0	59.69236648820375	1.04182833352628	-5.004534280333921	0	0	43.61996359404883	-10.03671232054965	0	59.69236648820375	1.04182833352628	-5.004534280333921	0	0	-0.261911387126293	-1.545692832913581	-2.013192591215899	0	-11.86286605464178	0	75.88185939202739	45.02735621081209	0	0	25.61348677035237	4.310918524069059	19.73129147587892	75.88185939202739	45.02735621081209	0	0
10.11	-2.602498047881601	-1.574387499321356	147.2382992721415	0	0.9399999999999999	0	43.62010503313452	-10.03669929030614	0	59.69239139881107	1.041828768298397	-5.004532184694697	0	0	43.62010503313452	-10.03669929030614	0	59.69239139881107	1.041828768298397	-5.004532184694697	0	0	-0.2684513510097734	-1.534574823147556	-2.023856070645257	0	-11.86303150246185	0	75.88176904692409	45.02734851831626	0	0	25.66747371331563	4.274588833763816	19.88283193938942	75.88176904692409	45.02734851831626	0	0
10.12	-2.618802074734753	-1.563330062357489	147.2324340474334	0	0.9399999999999999	0	43.62027694167558	-10.03668345092695	0	59.69242166869743	1.041829296607578	-5.004529637310051	0	0	43.62027694167558	-10.03668345092695	0	59.69242166869743	1.041829296607578	-5.004529637310051	0	0	-0.2935263096765191	-1.541468997973313	-2.013117721353335	0	-11.86323256506747	0	75.88165923927077	45.02733916745508	0	0	25.72944447719469	4.212492548226276	20.05322978490307	75.88165923927077	45.02733916745508	0	0
10.13	-2.639151272540535	-1.555181633305201	147.2367450358739	0	0.9399999999999999	0	43.620425738812	-10.03666975285496	0	59.69244788064757	1.041829754092411	-5.004527434848566	0	0	43.620425738812	-10.03666975285496	0	59.69244788064757	1.041829754092411	-5.004527434848566	0	0	-0.3198107472010803	-1.540871186902233	-2.017297593635818	0	-11.86340665881212	0	75.88156419414739	45.02733107916026	0	0	25.78057365630911	4.165651153314282	20.20238972991762	75.88156419414739	45.02733107916026	0	0
10.14	-2.650532375124851	-1.551643506774243	147.2238811960594	0	0.9399999999999999	0	43.62064542617411	-10.03664947065294	0	59.69248649132768	1.041830427975906	-5.004524171976666	0	0	43.62064542617411	-10.03664947065294	0	59.69248649132768	1.041830427975906	-5.004524171976666	0	0	-0.3489088079221498	-1.555246289156473	-2.005486184985827	0	-11.8636632795277	0	75.88142386757133	45.02731910917669	0	0	25.84118052985856	4.096717363951919	20.37335263550059	75.88142386757133	45.02731910917669	0	0
10.15	-2.653064482547354	-1.548834672240582	147.2313408363958	0	0.9399999999999999	0	43.62348484445035	-10.03638497751091	0	59.69298044405586	1.041839049077361	-5.004481585052891	0	0	43.62348484445035	-10.03638497751091	0	59.69298044405586	1.041839049077361	-5.004481585052891	0	0	-0.3609856844884416	-1.548323892687929	-2.013040797599382	0	-11.86695895076319	0	75.87961017818495	45.02716319045822	0	0	25.87964530408041	4.065338815764638	20.49498053133647	75.87961017818495	45.02716319045822	0	0
